<mxfile host="app.diagrams.net" agent="Mozilla/5.0 (Windows NT 10.0; Win64; x64) AppleWebKit/537.36 (KHTML, like Gecko) Chrome/141.0.0.0 Safari/537.36 Edg/141.0.0.0" version="28.2.8">
  <diagram name="페이지-1" id="7HsodUJglYPeHYmBNsSo">
    <mxGraphModel dx="601" dy="1858" grid="1" gridSize="10" guides="1" tooltips="1" connect="1" arrows="1" fold="1" page="1" pageScale="1" pageWidth="827" pageHeight="1169" math="0" shadow="0">
      <root>
        <mxCell id="0" />
        <mxCell id="1" parent="0" />
        <mxCell id="Ll5Iqspy58yFIxL4SHq4-14" value="" style="edgeStyle=orthogonalEdgeStyle;rounded=0;orthogonalLoop=1;jettySize=auto;html=1;endArrow=ERmany;endFill=0;" edge="1" parent="1" source="Ll5Iqspy58yFIxL4SHq4-1" target="Ll5Iqspy58yFIxL4SHq4-9">
          <mxGeometry relative="1" as="geometry" />
        </mxCell>
        <mxCell id="Ll5Iqspy58yFIxL4SHq4-16" value="" style="edgeStyle=orthogonalEdgeStyle;rounded=0;orthogonalLoop=1;jettySize=auto;html=1;endArrow=ERmany;endFill=0;" edge="1" parent="1" source="Ll5Iqspy58yFIxL4SHq4-1" target="Ll5Iqspy58yFIxL4SHq4-5">
          <mxGeometry relative="1" as="geometry" />
        </mxCell>
        <mxCell id="Ll5Iqspy58yFIxL4SHq4-17" value="" style="edgeStyle=orthogonalEdgeStyle;rounded=0;orthogonalLoop=1;jettySize=auto;html=1;entryX=1;entryY=0.5;entryDx=0;entryDy=0;endArrow=none;endFill=0;startArrow=ERmany;startFill=0;" edge="1" parent="1" source="Ll5Iqspy58yFIxL4SHq4-1" target="Ll5Iqspy58yFIxL4SHq4-4">
          <mxGeometry relative="1" as="geometry" />
        </mxCell>
        <mxCell id="Ll5Iqspy58yFIxL4SHq4-1" value="극장" style="rounded=0;whiteSpace=wrap;html=1;" vertex="1" parent="1">
          <mxGeometry x="290" y="230" width="100" height="50" as="geometry" />
        </mxCell>
        <mxCell id="Ll5Iqspy58yFIxL4SHq4-2" value="영화" style="rounded=0;whiteSpace=wrap;html=1;" vertex="1" parent="1">
          <mxGeometry x="624.5" y="525" width="100" height="50" as="geometry" />
        </mxCell>
        <mxCell id="Ll5Iqspy58yFIxL4SHq4-3" value="회원" style="rounded=0;whiteSpace=wrap;html=1;" vertex="1" parent="1">
          <mxGeometry x="290" y="590" width="100" height="50" as="geometry" />
        </mxCell>
        <mxCell id="Ll5Iqspy58yFIxL4SHq4-4" value="지역" style="rounded=0;whiteSpace=wrap;html=1;" vertex="1" parent="1">
          <mxGeometry x="70" y="230" width="100" height="50" as="geometry" />
        </mxCell>
        <mxCell id="Ll5Iqspy58yFIxL4SHq4-19" value="" style="edgeStyle=orthogonalEdgeStyle;rounded=0;orthogonalLoop=1;jettySize=auto;html=1;endArrow=none;endFill=0;" edge="1" parent="1" source="Ll5Iqspy58yFIxL4SHq4-5" target="Ll5Iqspy58yFIxL4SHq4-10">
          <mxGeometry relative="1" as="geometry" />
        </mxCell>
        <mxCell id="Ll5Iqspy58yFIxL4SHq4-5" value="상영관" style="rounded=0;whiteSpace=wrap;html=1;" vertex="1" parent="1">
          <mxGeometry x="624.5" y="230" width="100" height="50" as="geometry" />
        </mxCell>
        <mxCell id="Ll5Iqspy58yFIxL4SHq4-7" value="이벤트" style="rounded=0;whiteSpace=wrap;html=1;" vertex="1" parent="1">
          <mxGeometry x="40" y="490" width="100" height="50" as="geometry" />
        </mxCell>
        <mxCell id="Ll5Iqspy58yFIxL4SHq4-8" value="공지사항" style="rounded=0;whiteSpace=wrap;html=1;" vertex="1" parent="1">
          <mxGeometry x="40" y="420" width="100" height="50" as="geometry" />
        </mxCell>
        <mxCell id="Ll5Iqspy58yFIxL4SHq4-22" value="" style="edgeStyle=orthogonalEdgeStyle;rounded=0;orthogonalLoop=1;jettySize=auto;html=1;endArrow=none;endFill=0;startArrow=none;startFill=0;" edge="1" parent="1" source="Ll5Iqspy58yFIxL4SHq4-25" target="Ll5Iqspy58yFIxL4SHq4-3">
          <mxGeometry relative="1" as="geometry" />
        </mxCell>
        <mxCell id="Ll5Iqspy58yFIxL4SHq4-9" value="선호극장" style="rounded=0;whiteSpace=wrap;html=1;" vertex="1" parent="1">
          <mxGeometry x="290" y="450" width="100" height="50" as="geometry" />
        </mxCell>
        <mxCell id="Ll5Iqspy58yFIxL4SHq4-20" value="" style="edgeStyle=orthogonalEdgeStyle;rounded=0;orthogonalLoop=1;jettySize=auto;html=1;endArrow=none;endFill=0;startArrow=ERmany;startFill=0;" edge="1" parent="1" source="Ll5Iqspy58yFIxL4SHq4-10" target="Ll5Iqspy58yFIxL4SHq4-2">
          <mxGeometry relative="1" as="geometry" />
        </mxCell>
        <mxCell id="Ll5Iqspy58yFIxL4SHq4-10" value="상영시간표(스케줄)" style="rounded=0;whiteSpace=wrap;html=1;" vertex="1" parent="1">
          <mxGeometry x="624.5" y="385" width="100" height="50" as="geometry" />
        </mxCell>
        <mxCell id="Ll5Iqspy58yFIxL4SHq4-26" value="" style="edgeStyle=orthogonalEdgeStyle;rounded=0;orthogonalLoop=1;jettySize=auto;html=1;endArrow=none;endFill=0;startArrow=ERmany;startFill=0;" edge="1" parent="1" source="Ll5Iqspy58yFIxL4SHq4-9" target="Ll5Iqspy58yFIxL4SHq4-25">
          <mxGeometry relative="1" as="geometry">
            <mxPoint x="340" y="500" as="sourcePoint" />
            <mxPoint x="340" y="590" as="targetPoint" />
          </mxGeometry>
        </mxCell>
        <mxCell id="Ll5Iqspy58yFIxL4SHq4-25" value="등록" style="rhombus;whiteSpace=wrap;html=1;" vertex="1" parent="1">
          <mxGeometry x="302.5" y="520" width="75" height="50" as="geometry" />
        </mxCell>
        <mxCell id="Ll5Iqspy58yFIxL4SHq4-27" value="소속" style="rhombus;whiteSpace=wrap;html=1;" vertex="1" parent="1">
          <mxGeometry x="302.5" y="330" width="75" height="50" as="geometry" />
        </mxCell>
        <mxCell id="Ll5Iqspy58yFIxL4SHq4-29" value="&lt;u&gt;지역ID&lt;/u&gt;" style="ellipse;whiteSpace=wrap;html=1;" vertex="1" parent="1">
          <mxGeometry x="130" y="310" width="75" height="50" as="geometry" />
        </mxCell>
        <mxCell id="Ll5Iqspy58yFIxL4SHq4-30" value="지역명" style="ellipse;whiteSpace=wrap;html=1;" vertex="1" parent="1">
          <mxGeometry x="40" y="310" width="75" height="50" as="geometry" />
        </mxCell>
        <mxCell id="Ll5Iqspy58yFIxL4SHq4-36" value="" style="endArrow=none;html=1;rounded=0;exitX=0.5;exitY=0;exitDx=0;exitDy=0;" edge="1" parent="1" source="Ll5Iqspy58yFIxL4SHq4-30">
          <mxGeometry width="50" height="50" relative="1" as="geometry">
            <mxPoint x="310" y="330" as="sourcePoint" />
            <mxPoint x="83" y="280" as="targetPoint" />
          </mxGeometry>
        </mxCell>
        <mxCell id="Ll5Iqspy58yFIxL4SHq4-37" value="" style="endArrow=none;html=1;rounded=0;exitX=0.75;exitY=1;exitDx=0;exitDy=0;entryX=0.5;entryY=0;entryDx=0;entryDy=0;" edge="1" parent="1" source="Ll5Iqspy58yFIxL4SHq4-4" target="Ll5Iqspy58yFIxL4SHq4-29">
          <mxGeometry width="50" height="50" relative="1" as="geometry">
            <mxPoint x="310" y="330" as="sourcePoint" />
            <mxPoint x="360" y="280" as="targetPoint" />
          </mxGeometry>
        </mxCell>
        <mxCell id="Ll5Iqspy58yFIxL4SHq4-38" value="&lt;u&gt;극장ID&lt;/u&gt;" style="ellipse;whiteSpace=wrap;html=1;" vertex="1" parent="1">
          <mxGeometry x="130" y="170" width="75" height="50" as="geometry" />
        </mxCell>
        <mxCell id="Ll5Iqspy58yFIxL4SHq4-39" value="지역ID" style="ellipse;whiteSpace=wrap;html=1;" vertex="1" parent="1">
          <mxGeometry x="130" y="90" width="75" height="50" as="geometry" />
        </mxCell>
        <mxCell id="Ll5Iqspy58yFIxL4SHq4-40" value="극장이름" style="ellipse;whiteSpace=wrap;html=1;" vertex="1" parent="1">
          <mxGeometry x="302.5" y="70" width="75" height="50" as="geometry" />
        </mxCell>
        <mxCell id="Ll5Iqspy58yFIxL4SHq4-41" value="극장연락처" style="ellipse;whiteSpace=wrap;html=1;" vertex="1" parent="1">
          <mxGeometry x="215" y="110" width="75" height="50" as="geometry" />
        </mxCell>
        <mxCell id="Ll5Iqspy58yFIxL4SHq4-44" value="극장주소" style="ellipse;whiteSpace=wrap;html=1;" vertex="1" parent="1">
          <mxGeometry x="376" y="120" width="75" height="50" as="geometry" />
        </mxCell>
        <mxCell id="Ll5Iqspy58yFIxL4SHq4-46" value="" style="endArrow=none;html=1;rounded=0;exitX=0.25;exitY=0;exitDx=0;exitDy=0;entryX=0.5;entryY=1;entryDx=0;entryDy=0;" edge="1" parent="1" source="Ll5Iqspy58yFIxL4SHq4-1" target="Ll5Iqspy58yFIxL4SHq4-39">
          <mxGeometry width="50" height="50" relative="1" as="geometry">
            <mxPoint x="290" y="310" as="sourcePoint" />
            <mxPoint x="270" y="130" as="targetPoint" />
          </mxGeometry>
        </mxCell>
        <mxCell id="Ll5Iqspy58yFIxL4SHq4-47" value="" style="endArrow=none;html=1;rounded=0;exitX=0;exitY=0;exitDx=0;exitDy=0;" edge="1" parent="1" source="Ll5Iqspy58yFIxL4SHq4-1" target="Ll5Iqspy58yFIxL4SHq4-38">
          <mxGeometry width="50" height="50" relative="1" as="geometry">
            <mxPoint x="290" y="310" as="sourcePoint" />
            <mxPoint x="340" y="260" as="targetPoint" />
          </mxGeometry>
        </mxCell>
        <mxCell id="Ll5Iqspy58yFIxL4SHq4-48" value="" style="endArrow=none;html=1;rounded=0;entryX=0.6;entryY=1;entryDx=0;entryDy=0;entryPerimeter=0;" edge="1" parent="1" source="Ll5Iqspy58yFIxL4SHq4-1" target="Ll5Iqspy58yFIxL4SHq4-41">
          <mxGeometry width="50" height="50" relative="1" as="geometry">
            <mxPoint x="290" y="310" as="sourcePoint" />
            <mxPoint x="340" y="260" as="targetPoint" />
          </mxGeometry>
        </mxCell>
        <mxCell id="Ll5Iqspy58yFIxL4SHq4-49" value="" style="endArrow=none;html=1;rounded=0;entryX=0.36;entryY=1;entryDx=0;entryDy=0;entryPerimeter=0;exitX=0.6;exitY=0;exitDx=0;exitDy=0;exitPerimeter=0;" edge="1" parent="1" source="Ll5Iqspy58yFIxL4SHq4-1" target="Ll5Iqspy58yFIxL4SHq4-40">
          <mxGeometry width="50" height="50" relative="1" as="geometry">
            <mxPoint x="290" y="310" as="sourcePoint" />
            <mxPoint x="340" y="260" as="targetPoint" />
          </mxGeometry>
        </mxCell>
        <mxCell id="Ll5Iqspy58yFIxL4SHq4-50" value="" style="endArrow=none;html=1;rounded=0;entryX=0.5;entryY=1;entryDx=0;entryDy=0;exitX=0.8;exitY=0;exitDx=0;exitDy=0;exitPerimeter=0;" edge="1" parent="1" source="Ll5Iqspy58yFIxL4SHq4-1" target="Ll5Iqspy58yFIxL4SHq4-44">
          <mxGeometry width="50" height="50" relative="1" as="geometry">
            <mxPoint x="290" y="310" as="sourcePoint" />
            <mxPoint x="340" y="260" as="targetPoint" />
          </mxGeometry>
        </mxCell>
        <mxCell id="Ll5Iqspy58yFIxL4SHq4-51" value="&lt;u&gt;상영관ID&lt;/u&gt;" style="ellipse;whiteSpace=wrap;html=1;" vertex="1" parent="1">
          <mxGeometry x="560" y="160" width="75" height="50" as="geometry" />
        </mxCell>
        <mxCell id="Ll5Iqspy58yFIxL4SHq4-52" value="극장ID" style="ellipse;whiteSpace=wrap;html=1;" vertex="1" parent="1">
          <mxGeometry x="583.5" y="100" width="75" height="50" as="geometry" />
        </mxCell>
        <mxCell id="Ll5Iqspy58yFIxL4SHq4-53" value="상영관종류" style="ellipse;whiteSpace=wrap;html=1;" vertex="1" parent="1">
          <mxGeometry x="663.5" y="105" width="75" height="50" as="geometry" />
        </mxCell>
        <mxCell id="Ll5Iqspy58yFIxL4SHq4-54" value="총좌석수" style="ellipse;whiteSpace=wrap;html=1;" vertex="1" parent="1">
          <mxGeometry x="694.5" y="160" width="75" height="50" as="geometry" />
        </mxCell>
        <mxCell id="Ll5Iqspy58yFIxL4SHq4-56" value="" style="endArrow=none;html=1;rounded=0;entryX=1;entryY=1;entryDx=0;entryDy=0;exitX=0.088;exitY=-0.004;exitDx=0;exitDy=0;exitPerimeter=0;" edge="1" parent="1" source="Ll5Iqspy58yFIxL4SHq4-5" target="Ll5Iqspy58yFIxL4SHq4-51">
          <mxGeometry width="50" height="50" relative="1" as="geometry">
            <mxPoint x="680" y="310" as="sourcePoint" />
            <mxPoint x="730" y="260" as="targetPoint" />
          </mxGeometry>
        </mxCell>
        <mxCell id="Ll5Iqspy58yFIxL4SHq4-57" value="" style="endArrow=none;html=1;rounded=0;exitX=0.25;exitY=0;exitDx=0;exitDy=0;entryX=0.664;entryY=0.996;entryDx=0;entryDy=0;entryPerimeter=0;" edge="1" parent="1" source="Ll5Iqspy58yFIxL4SHq4-5" target="Ll5Iqspy58yFIxL4SHq4-52">
          <mxGeometry width="50" height="50" relative="1" as="geometry">
            <mxPoint x="680" y="310" as="sourcePoint" />
            <mxPoint x="570" y="160" as="targetPoint" />
          </mxGeometry>
        </mxCell>
        <mxCell id="Ll5Iqspy58yFIxL4SHq4-58" value="" style="endArrow=none;html=1;rounded=0;entryX=0;entryY=1;entryDx=0;entryDy=0;exitX=0.5;exitY=0;exitDx=0;exitDy=0;" edge="1" parent="1" source="Ll5Iqspy58yFIxL4SHq4-5" target="Ll5Iqspy58yFIxL4SHq4-53">
          <mxGeometry width="50" height="50" relative="1" as="geometry">
            <mxPoint x="680" y="310" as="sourcePoint" />
            <mxPoint x="730" y="260" as="targetPoint" />
          </mxGeometry>
        </mxCell>
        <mxCell id="Ll5Iqspy58yFIxL4SHq4-59" value="" style="endArrow=none;html=1;rounded=0;entryX=0;entryY=1;entryDx=0;entryDy=0;" edge="1" parent="1" source="Ll5Iqspy58yFIxL4SHq4-5" target="Ll5Iqspy58yFIxL4SHq4-54">
          <mxGeometry width="50" height="50" relative="1" as="geometry">
            <mxPoint x="680" y="310" as="sourcePoint" />
            <mxPoint x="730" y="260" as="targetPoint" />
          </mxGeometry>
        </mxCell>
        <mxCell id="Ll5Iqspy58yFIxL4SHq4-65" value="회원ID" style="ellipse;whiteSpace=wrap;html=1;" vertex="1" parent="1">
          <mxGeometry x="177.5" y="490" width="80" height="50" as="geometry" />
        </mxCell>
        <mxCell id="Ll5Iqspy58yFIxL4SHq4-66" value="극장ID" style="ellipse;whiteSpace=wrap;html=1;" vertex="1" parent="1">
          <mxGeometry x="180" y="430" width="75" height="50" as="geometry" />
        </mxCell>
        <mxCell id="Ll5Iqspy58yFIxL4SHq4-67" value="" style="endArrow=none;html=1;rounded=0;exitX=1;exitY=0.5;exitDx=0;exitDy=0;entryX=0;entryY=0.25;entryDx=0;entryDy=0;" edge="1" parent="1" source="Ll5Iqspy58yFIxL4SHq4-66" target="Ll5Iqspy58yFIxL4SHq4-9">
          <mxGeometry width="50" height="50" relative="1" as="geometry">
            <mxPoint x="270" y="430" as="sourcePoint" />
            <mxPoint x="320" y="380" as="targetPoint" />
          </mxGeometry>
        </mxCell>
        <mxCell id="Ll5Iqspy58yFIxL4SHq4-68" value="" style="endArrow=none;html=1;rounded=0;exitX=1;exitY=0.5;exitDx=0;exitDy=0;entryX=0;entryY=0.5;entryDx=0;entryDy=0;" edge="1" parent="1" source="Ll5Iqspy58yFIxL4SHq4-65" target="Ll5Iqspy58yFIxL4SHq4-9">
          <mxGeometry width="50" height="50" relative="1" as="geometry">
            <mxPoint x="270" y="430" as="sourcePoint" />
            <mxPoint x="320" y="380" as="targetPoint" />
          </mxGeometry>
        </mxCell>
        <mxCell id="Ll5Iqspy58yFIxL4SHq4-76" value="소속" style="rhombus;whiteSpace=wrap;html=1;" vertex="1" parent="1">
          <mxGeometry x="182.5" y="230" width="75" height="50" as="geometry" />
        </mxCell>
        <mxCell id="Ll5Iqspy58yFIxL4SHq4-77" value="소속" style="rhombus;whiteSpace=wrap;html=1;" vertex="1" parent="1">
          <mxGeometry x="480" y="235" width="60" height="40" as="geometry" />
        </mxCell>
        <mxCell id="Ll5Iqspy58yFIxL4SHq4-78" value="소속" style="rhombus;whiteSpace=wrap;html=1;" vertex="1" parent="1">
          <mxGeometry x="637" y="315" width="75" height="50" as="geometry" />
        </mxCell>
        <mxCell id="Ll5Iqspy58yFIxL4SHq4-85" value="관람료" style="rounded=0;whiteSpace=wrap;html=1;" vertex="1" parent="1">
          <mxGeometry x="451" width="100" height="50" as="geometry" />
        </mxCell>
        <mxCell id="Ll5Iqspy58yFIxL4SHq4-86" value="상영관ID" style="ellipse;whiteSpace=wrap;html=1;" vertex="1" parent="1">
          <mxGeometry x="411" y="-130" width="75" height="50" as="geometry" />
        </mxCell>
        <mxCell id="Ll5Iqspy58yFIxL4SHq4-87" value="극장ID" style="ellipse;whiteSpace=wrap;html=1;" vertex="1" parent="1">
          <mxGeometry x="496" y="-130" width="75" height="50" as="geometry" />
        </mxCell>
        <mxCell id="Ll5Iqspy58yFIxL4SHq4-88" value="&lt;u&gt;관람료ID&lt;/u&gt;" style="ellipse;whiteSpace=wrap;html=1;" vertex="1" parent="1">
          <mxGeometry x="365" y="-70" width="75" height="50" as="geometry" />
        </mxCell>
        <mxCell id="Ll5Iqspy58yFIxL4SHq4-89" value="상영시간" style="ellipse;whiteSpace=wrap;html=1;" vertex="1" parent="1">
          <mxGeometry x="551" y="-70" width="75" height="50" as="geometry" />
        </mxCell>
        <mxCell id="Ll5Iqspy58yFIxL4SHq4-98" value="" style="endArrow=ERmany;html=1;rounded=0;entryX=0.328;entryY=1.028;entryDx=0;entryDy=0;entryPerimeter=0;endFill=0;" edge="1" parent="1">
          <mxGeometry width="50" height="50" relative="1" as="geometry">
            <mxPoint x="390" y="240" as="sourcePoint" />
            <mxPoint x="483.79999999999995" y="50.399999999999636" as="targetPoint" />
            <Array as="points">
              <mxPoint x="484" y="240" />
            </Array>
          </mxGeometry>
        </mxCell>
        <mxCell id="Ll5Iqspy58yFIxL4SHq4-99" value="" style="endArrow=ERmany;html=1;rounded=0;entryX=0.75;entryY=1;entryDx=0;entryDy=0;exitX=0.002;exitY=0.197;exitDx=0;exitDy=0;startArrow=ERmany;startFill=0;endFill=0;exitPerimeter=0;" edge="1" parent="1" source="Ll5Iqspy58yFIxL4SHq4-5">
          <mxGeometry width="50" height="50" relative="1" as="geometry">
            <mxPoint x="624.5" y="242.5" as="sourcePoint" />
            <mxPoint x="526.0000000000002" y="49.99999999999977" as="targetPoint" />
            <Array as="points">
              <mxPoint x="526" y="240" />
            </Array>
          </mxGeometry>
        </mxCell>
        <mxCell id="Ll5Iqspy58yFIxL4SHq4-100" value="" style="endArrow=none;html=1;rounded=0;entryX=1;entryY=1;entryDx=0;entryDy=0;exitX=0;exitY=0;exitDx=0;exitDy=0;" edge="1" parent="1" source="Ll5Iqspy58yFIxL4SHq4-85" target="Ll5Iqspy58yFIxL4SHq4-88">
          <mxGeometry width="50" height="50" relative="1" as="geometry">
            <mxPoint x="420" y="60" as="sourcePoint" />
            <mxPoint x="470" y="10" as="targetPoint" />
          </mxGeometry>
        </mxCell>
        <mxCell id="Ll5Iqspy58yFIxL4SHq4-101" value="" style="endArrow=none;html=1;rounded=0;entryX=0.626;entryY=0.993;entryDx=0;entryDy=0;entryPerimeter=0;exitX=0.25;exitY=0;exitDx=0;exitDy=0;" edge="1" parent="1" source="Ll5Iqspy58yFIxL4SHq4-85" target="Ll5Iqspy58yFIxL4SHq4-86">
          <mxGeometry width="50" height="50" relative="1" as="geometry">
            <mxPoint x="420" y="60" as="sourcePoint" />
            <mxPoint x="470" y="10" as="targetPoint" />
          </mxGeometry>
        </mxCell>
        <mxCell id="Ll5Iqspy58yFIxL4SHq4-102" value="" style="endArrow=none;html=1;rounded=0;entryX=0.5;entryY=1;entryDx=0;entryDy=0;exitX=0.5;exitY=0;exitDx=0;exitDy=0;" edge="1" parent="1" source="Ll5Iqspy58yFIxL4SHq4-85" target="Ll5Iqspy58yFIxL4SHq4-87">
          <mxGeometry width="50" height="50" relative="1" as="geometry">
            <mxPoint x="420" y="60" as="sourcePoint" />
            <mxPoint x="470" y="10" as="targetPoint" />
          </mxGeometry>
        </mxCell>
        <mxCell id="Ll5Iqspy58yFIxL4SHq4-103" value="" style="endArrow=none;html=1;rounded=0;entryX=0;entryY=1;entryDx=0;entryDy=0;exitX=0.75;exitY=0;exitDx=0;exitDy=0;" edge="1" parent="1" source="Ll5Iqspy58yFIxL4SHq4-85" target="Ll5Iqspy58yFIxL4SHq4-89">
          <mxGeometry width="50" height="50" relative="1" as="geometry">
            <mxPoint x="420" y="60" as="sourcePoint" />
            <mxPoint x="470" y="10" as="targetPoint" />
          </mxGeometry>
        </mxCell>
        <mxCell id="Ll5Iqspy58yFIxL4SHq4-104" value="극장정보" style="rounded=0;whiteSpace=wrap;html=1;" vertex="1" parent="1">
          <mxGeometry x="227.5" y="-60" width="100" height="50" as="geometry" />
        </mxCell>
        <mxCell id="Ll5Iqspy58yFIxL4SHq4-106" value="보유시설" style="ellipse;whiteSpace=wrap;html=1;" vertex="1" parent="1">
          <mxGeometry x="82.5" y="-100" width="75" height="50" as="geometry" />
        </mxCell>
        <mxCell id="Ll5Iqspy58yFIxL4SHq4-107" value="층별안내" style="ellipse;whiteSpace=wrap;html=1;" vertex="1" parent="1">
          <mxGeometry x="95" y="-170" width="75" height="50" as="geometry" />
        </mxCell>
        <mxCell id="Ll5Iqspy58yFIxL4SHq4-108" value="극장주소" style="ellipse;whiteSpace=wrap;html=1;" vertex="1" parent="1">
          <mxGeometry x="130" y="-240" width="75" height="50" as="geometry" />
        </mxCell>
        <mxCell id="Ll5Iqspy58yFIxL4SHq4-109" value="주차" style="ellipse;whiteSpace=wrap;html=1;" vertex="1" parent="1">
          <mxGeometry x="264" y="-170" width="75" height="50" as="geometry" />
        </mxCell>
        <mxCell id="Ll5Iqspy58yFIxL4SHq4-110" value="" style="endArrow=none;html=1;rounded=0;entryX=0.5;entryY=1;entryDx=0;entryDy=0;exitX=0.5;exitY=0;exitDx=0;exitDy=0;" edge="1" parent="1" source="Ll5Iqspy58yFIxL4SHq4-121" target="Ll5Iqspy58yFIxL4SHq4-104">
          <mxGeometry width="50" height="50" relative="1" as="geometry">
            <mxPoint x="370" y="100" as="sourcePoint" />
            <mxPoint x="420" y="50" as="targetPoint" />
          </mxGeometry>
        </mxCell>
        <mxCell id="Ll5Iqspy58yFIxL4SHq4-111" value="" style="endArrow=none;html=1;rounded=0;entryX=1;entryY=1;entryDx=0;entryDy=0;exitX=0;exitY=0.25;exitDx=0;exitDy=0;" edge="1" parent="1" source="Ll5Iqspy58yFIxL4SHq4-104" target="Ll5Iqspy58yFIxL4SHq4-106">
          <mxGeometry width="50" height="50" relative="1" as="geometry">
            <mxPoint x="320" y="60" as="sourcePoint" />
            <mxPoint x="370" y="10" as="targetPoint" />
          </mxGeometry>
        </mxCell>
        <mxCell id="Ll5Iqspy58yFIxL4SHq4-112" value="" style="endArrow=none;html=1;rounded=0;entryX=0.5;entryY=1;entryDx=0;entryDy=0;exitX=0.25;exitY=0;exitDx=0;exitDy=0;" edge="1" parent="1" source="Ll5Iqspy58yFIxL4SHq4-104" target="Ll5Iqspy58yFIxL4SHq4-107">
          <mxGeometry width="50" height="50" relative="1" as="geometry">
            <mxPoint x="290" y="-90" as="sourcePoint" />
            <mxPoint x="340" y="-140" as="targetPoint" />
          </mxGeometry>
        </mxCell>
        <mxCell id="Ll5Iqspy58yFIxL4SHq4-113" value="" style="endArrow=none;html=1;rounded=0;entryX=0.5;entryY=1;entryDx=0;entryDy=0;exitX=0.5;exitY=0;exitDx=0;exitDy=0;" edge="1" parent="1" source="Ll5Iqspy58yFIxL4SHq4-104" target="Ll5Iqspy58yFIxL4SHq4-108">
          <mxGeometry width="50" height="50" relative="1" as="geometry">
            <mxPoint x="290" y="-90" as="sourcePoint" />
            <mxPoint x="340" y="-140" as="targetPoint" />
          </mxGeometry>
        </mxCell>
        <mxCell id="Ll5Iqspy58yFIxL4SHq4-114" value="" style="endArrow=none;html=1;rounded=0;exitX=0.75;exitY=0;exitDx=0;exitDy=0;entryX=0.5;entryY=1;entryDx=0;entryDy=0;" edge="1" parent="1" source="Ll5Iqspy58yFIxL4SHq4-104" target="Ll5Iqspy58yFIxL4SHq4-109">
          <mxGeometry width="50" height="50" relative="1" as="geometry">
            <mxPoint x="290" y="-90" as="sourcePoint" />
            <mxPoint x="340" y="-140" as="targetPoint" />
          </mxGeometry>
        </mxCell>
        <mxCell id="Ll5Iqspy58yFIxL4SHq4-115" value="극장ID" style="ellipse;whiteSpace=wrap;html=1;" vertex="1" parent="1">
          <mxGeometry x="65" y="-40" width="75" height="50" as="geometry" />
        </mxCell>
        <mxCell id="Ll5Iqspy58yFIxL4SHq4-116" value="" style="endArrow=none;html=1;rounded=0;entryX=1;entryY=0.5;entryDx=0;entryDy=0;exitX=0;exitY=0.75;exitDx=0;exitDy=0;" edge="1" parent="1" source="Ll5Iqspy58yFIxL4SHq4-104" target="Ll5Iqspy58yFIxL4SHq4-115">
          <mxGeometry width="50" height="50" relative="1" as="geometry">
            <mxPoint x="320" y="70" as="sourcePoint" />
            <mxPoint x="370" y="20" as="targetPoint" />
          </mxGeometry>
        </mxCell>
        <mxCell id="Ll5Iqspy58yFIxL4SHq4-117" value="&lt;u&gt;극장정보ID&lt;/u&gt;" style="ellipse;whiteSpace=wrap;html=1;" vertex="1" parent="1">
          <mxGeometry x="310" y="-120" width="75" height="50" as="geometry" />
        </mxCell>
        <mxCell id="Ll5Iqspy58yFIxL4SHq4-118" value="" style="endArrow=none;html=1;rounded=0;exitX=0.929;exitY=-0.011;exitDx=0;exitDy=0;exitPerimeter=0;entryX=0.285;entryY=0.958;entryDx=0;entryDy=0;entryPerimeter=0;" edge="1" parent="1" source="Ll5Iqspy58yFIxL4SHq4-104" target="Ll5Iqspy58yFIxL4SHq4-117">
          <mxGeometry width="50" height="50" relative="1" as="geometry">
            <mxPoint x="350" y="-30" as="sourcePoint" />
            <mxPoint x="400" y="-80" as="targetPoint" />
          </mxGeometry>
        </mxCell>
        <mxCell id="Ll5Iqspy58yFIxL4SHq4-119" value="대중교통" style="ellipse;whiteSpace=wrap;html=1;" vertex="1" parent="1">
          <mxGeometry x="200" y="-210" width="75" height="50" as="geometry" />
        </mxCell>
        <mxCell id="Ll5Iqspy58yFIxL4SHq4-120" value="" style="endArrow=none;html=1;rounded=0;entryX=0.5;entryY=1;entryDx=0;entryDy=0;exitX=0.6;exitY=0;exitDx=0;exitDy=0;exitPerimeter=0;" edge="1" parent="1" source="Ll5Iqspy58yFIxL4SHq4-104" target="Ll5Iqspy58yFIxL4SHq4-119">
          <mxGeometry width="50" height="50" relative="1" as="geometry">
            <mxPoint x="360" y="40" as="sourcePoint" />
            <mxPoint x="410" y="-10" as="targetPoint" />
          </mxGeometry>
        </mxCell>
        <mxCell id="Ll5Iqspy58yFIxL4SHq4-122" value="" style="endArrow=none;html=1;rounded=0;entryX=0.5;entryY=1;entryDx=0;entryDy=0;exitX=0.5;exitY=0;exitDx=0;exitDy=0;" edge="1" parent="1" source="Ll5Iqspy58yFIxL4SHq4-1" target="Ll5Iqspy58yFIxL4SHq4-121">
          <mxGeometry width="50" height="50" relative="1" as="geometry">
            <mxPoint x="340" y="230" as="sourcePoint" />
            <mxPoint x="240" y="10" as="targetPoint" />
          </mxGeometry>
        </mxCell>
        <mxCell id="Ll5Iqspy58yFIxL4SHq4-121" value="소속" style="rhombus;whiteSpace=wrap;html=1;" vertex="1" parent="1">
          <mxGeometry x="240" y="30" width="75" height="50" as="geometry" />
        </mxCell>
        <mxCell id="Ll5Iqspy58yFIxL4SHq4-123" value="소속" style="rhombus;whiteSpace=wrap;html=1;" vertex="1" parent="1">
          <mxGeometry x="496" y="80" width="60" height="40" as="geometry" />
        </mxCell>
        <mxCell id="Ll5Iqspy58yFIxL4SHq4-128" value="소속" style="rhombus;whiteSpace=wrap;html=1;" vertex="1" parent="1">
          <mxGeometry x="454" y="110" width="60" height="40" as="geometry" />
        </mxCell>
      </root>
    </mxGraphModel>
  </diagram>
</mxfile>
